# AST/ASF file generated using VICON BodyLanguage
# -----------------------------------------------
:version 1.10
:name VICON
:units
  mass 1.0
  length 0.45
  angle deg
:documentation
   .ast/.asf automatically generated from VICON data using
   VICON BodyBuilder and BodyLanguage model FoxedUp or BRILLIANT.MOD
:root
   order TX TY TZ RX RY RZ
   axis XYZ
   position 0 0 0  
   orientation 0 0 0 
:bonedata
  begin
     id 1 
     name lhipjoint
     direction 0.54267 -0.795011 0.271047 
     length 2.39899 
     axis 0 0 0  XYZ
  end
  begin
     id 2 
     name lfemur
     direction 0.34202 -0.939693 0  
     length 7.49701  
     axis 0 0 20  XYZ
    dof rx ry rz
    limits (-160.0 20.0)
           (-70.0 70.0)
           (-60.0 70.0)
  end
  begin
     id 3 
     name ltibia
     direction 0.34202 -0.939693 0   
     length 8.1668   
     axis 0 0 20   XYZ
    dof rx
    limits (-10.0 170.0)
  end
  begin
     id 4 
     name lfoot
     direction 0.0736283 -0.202292 0.976554   
     length 2.13544   
     axis -90 7.62852e-016 20   XYZ
    dof rx rz
    limits (-45.0 90.0)
           (-70.0 20.0)
  end
  begin
     id 5 
     name ltoes
     direction 1.53557e-011 -4.22024e-011 1   
     length 1.07411   
     axis -90 7.62852e-016 20   XYZ
    dof rx
    limits (-90.0 20.0)
  end
  begin
     id 6 
     name rhipjoint
     direction -0.538061 -0.797813 0.272002   
     length 2.39057  
     axis 0 0 0  XYZ 
  end
  begin
     id 7 
     name rfemur
     direction -0.34202 -0.939693 0   
     length 7.50152   
     axis 0 0 -20   XYZ
    dof rx ry rz
    limits (-160.0 20.0)
           (-70.0 70.0)
           (-70.0 60.0)
  end
  begin
     id 8 
     name rtibia
     direction -0.34202 -0.939693 0   
     length 8.05793   
     axis 0 0 -20   XYZ
    dof rx
    limits (-10.0 170.0)
 end
 begin
     id 9 
     name rfoot
     direction -0.0765195 -0.210236 0.974652   
     length 2.28698  
     axis -90 -7.62852e-016 -20   XYZ
    dof rx rz
    limits (-45.0 90.0)
           (-20.0 70.0)
  end
  begin
     id 10 
     name rtoes
     direction -1.53542e-011 -4.21847e-011 1   
     length 1.14762   
     axis -90 -7.62852e-016 -20   XYZ
    dof rx
    limits (-90.0 20.0)
  end
  begin
     id 11 
     name lowerback
     direction -0.0217239 0.996592 -0.0795765   
     length 2.08176   
     axis 0 0 0   XYZ
    dof rx ry rz
    limits (-20.0 45.0)
           (-30.0 30.0)
           (-30.0 30.0)
  end
  begin
     id 12 
     name upperback
     direction -0.00563773 0.999651 -0.0258155   
     length 2.08898   
     axis 0 0 0   XYZ
    dof rx ry rz
    limits (-20.0 45.0)
           (-30.0 30.0)
           (-30.0 30.0)
  end
  begin
     id 13 
     name thorax
     direction 0.0032706 0.999923 0.0119599   
     length 2.0968   
     axis 0 0 0   XYZ
    dof rx ry rz
    limits (-20.0 45.0)
           (-30.0 30.0)
           (-30.0 30.0)
  end
  begin
     id 14 
     name lowerneck
     direction -0.0285886 0.99568 0.0883427   
     length 1.81272   
     axis 0 0 0   XYZ
    dof rx ry rz
    limits (-20.0 45.0)
           (-30.0 30.0)
           (-30.0 30.0)
  end
  begin
     id 15 
     name upperneck
     direction 0.0807535 0.97985 -0.18268   
     length 1.82518   
     axis 0 0 0   XYZ
    dof rx ry rz
    limits (-20.0 45.0)
           (-30.0 30.0)
           (-30.0 30.0)
  end
  begin
     id 16
     name head
     direction 0.0236605 0.997053 -0.0729767  
     length 1.84443  
     axis 0 0 0   XYZ
    dof rx ry rz
    limits (-20.0 45.0)
           (-30.0 30.0)
           (-30.0 30.0)
  end
  begin
     id 17 
     name lclavicle
     direction 0.918986 0.39378 -0.0200683  
     length 3.27822  
     axis 0 0 0   XYZ
    dof ry rz
    limits (-20.0 10.0)
           (0.0 20.0)
  end
  begin
     id 18 
     name lhumerus
     direction 1 -4.4897e-011 2.09544e-027   
     length 5.5568   
     axis 180 -30 -90   XYZ
    dof rx ry rz
    limits (-60.0 90.0)
           (-90.0 90.0)
           (-90.0 90.0)
  end
  begin
     id 19
     name lradius
     direction 1 -4.48957e-011 -1.27696e-026   
     length 3.63979   
     axis 180 -30 -90   XYZ
    dof rx
    limits (-10.0 170.0)
  end
  begin
     id 20
     name lwrist
     direction 1 -4.49001e-011 -1.49001e-026   
     length 1.8199   
     axis 9.0955e-015 90 90   XYZ
    dof ry
    limits (-180.0 0.0)
 end
  begin
     id 21 
     name lhand
     direction 1 -4.48709e-011 -2.9758e-026   
     length 0.569419   
     axis 1.90115e-014 90 90   XYZ
    dof rx rz
    limits (-90.0 90.0)
           (-45.0 45.0)
  end
  begin
     id 22 
     name lfingers
     direction 1 -4.49175e-011 -5.96505e-026   
     length 0.45908   
     axis 3.80223e-014 90 90   XYZ
    dof rx
    limits (0.0 90.0)
  end
  begin
     id 23
     name lthumb
     direction 0.707107 -6.34864e-011 0.707107   
     length 0.65915   
     axis -90 45 -3.84942e-014   XYZ
    dof rx rz
    limits (-45.0 45.0)
           (-45.0 45.0)
  end
  begin
     id 24 
     name rclavicle
     direction -0.911913 0.396426 -0.106115   
     length 3.46301  
     axis 0 0 0   XYZ 
    dof ry rz
    limits (-10.0 20.0)
           (-20.0 0.0)
  end
  begin
     id 25 
     name rhumerus
     direction -1 -4.48965e-011 7.78516e-028  
     length 5.34339   
     axis 180 30 90   XYZ
    dof rx ry rz
    limits (-90.0 60.0)
           (-90.0 90.0)
           (-90.0 90.0)
  end
  begin
     id 26 
     name rradius
     direction -1 -4.48948e-011 -5.79823e-027   
     length 3.65101   
     axis 180 30 90   XYZ
    dof rx
    limits (-10.0 170.0)
  end
  begin
     id 27 
     name rwrist
     direction -1 -4.48995e-011 -1.48996e-026   
     length 1.8255   
     axis 9.0955e-015 -90 -90   XYZ
    dof ry
    limits (-180.0 0.0)
  end
  begin
     id 28
     name rhand
     direction -1 -4.48957e-011 -2.97937e-026   
     length 0.694249   
     axis 1.90115e-014 -90 -90   XYZ
    dof rx rz
    limits (-90.0 90.0)
           (-45.0 45.0)
  end
  begin
     id 29
     name rfingers
     direction -1 -4.4898e-011 -5.95943e-026   
     length 0.559721   
     axis 3.80223e-014 -90 -90   XYZ
    dof rx
    limits (0.0 90.0)
  end
  begin
     id 30
     name rthumb
     direction -0.707107 -6.34969e-011 0.707107   
     length 0.803651   
     axis -90 -45 3.84942e-014   XYZ
    dof rx rz
    limits (-45.0 45.0)
           (-45.0 45.0)
  end
:hierarchy
  begin
    root lhipjoint rhipjoint lowerback
    lhipjoint lfemur
    lfemur ltibia
    ltibia lfoot
    lfoot ltoes
    rhipjoint rfemur
    rfemur rtibia
    rtibia rfoot
    rfoot rtoes
    lowerback upperback
    upperback thorax
    thorax lowerneck lclavicle rclavicle
    lowerneck upperneck
    upperneck head
    lclavicle lhumerus
    lhumerus lradius
    lradius lwrist
    lwrist lhand lthumb
    lhand lfingers
    rclavicle rhumerus
    rhumerus rradius
    rradius rwrist
    rwrist rhand rthumb
    rhand rfingers
  end

#!OML:ASF H:\Terrain\Walking\May29\JustinRory\rory.ASF
:FULLY-SPECIFIED
:DEGREES
276
root 9.34218 17.6356 -6.93302 -28.8021 -56.5356 33.8748
lowerback 9.13532 -4.76012 -5.72424
upperback 4.5117 -6.87768 2.27889
thorax 0.573756 -3.64213 6.10207
lowerneck -1.44529 13.2779 12.0307
upperneck 16.6562 21.0219 -21.8066
head 9.16092 9.37947 -7.17535
rclavicle -4.77083e-014 4.45278e-014
rhumerus -39.3285 -18.2339 -39.6998
rradius 38.5099
rwrist -2.84486
rhand -18.6022 33.5704
rfingers 7.12502
rthumb 7.68916 3.7302
lclavicle -4.77083e-014 4.45278e-014
lhumerus -28.1561 -12.5678 70.4544
lradius 49.596
lwrist -9.2093
lhand -18.2196 17.6252
lfingers 7.12502
lthumb 8.05838 47.4515
rfemur -43.7202 2.07742 14.3673
rtibia 60.4521
rfoot -8.86995 -7.19952
rtoes 12.3421
lfemur -8.35694 8.05505 -31.566
ltibia 34.8576
lfoot -17.2387 -5.10338
ltoes -1.58345
277
root 9.25014 17.6869 -6.79613 -29.2439 -55.6875 34.7848
lowerback 8.88706 -4.99926 -6.50154
upperback 4.31242 -7.24062 2.15667
thorax 0.641156 -3.83085 6.4066
lowerneck -1.34235 13.3268 11.8864
upperneck 16.6141 21.1085 -21.8765
head 9.13732 9.41464 -7.17041
rclavicle 2.3059e-014 2.54444e-014
rhumerus -40.0149 -18.6163 -39.2172
rradius 38.3613
rwrist -2.39867
rhand -18.1585 32.7131
rfingers 7.12502
rthumb 8.11737 2.88897
lclavicle 2.3059e-014 2.54444e-014
lhumerus -29.2218 -12.1508 71.0001
lradius 51.5046
lwrist -7.54445
lhand -16.8236 16.5935
lfingers 7.12502
lthumb 9.40551 46.3636
rfemur -43.085 1.86176 13.6363
rtibia 57.2249
rfoot -9.15774 -6.24608
rtoes 12.7248
lfemur -7.68851 7.7593 -32.6508
ltibia 34.0435
lfoot -16.4112 -5.50033
ltoes -1.43465
278
root 9.14953 17.7551 -6.65549 -29.2042 -55.1796 34.832
lowerback 8.76473 -5.28053 -6.72526
upperback 4.20485 -7.62408 2.18847
thorax 0.692473 -4.02563 6.57168
lowerneck -1.38281 13.3766 11.7401
upperneck 16.8202 21.2097 -21.8327
head 9.21373 9.4385 -7.11811
rclavicle -1.41535e-013 4.45278e-014
rhumerus -40.6239 -18.807 -38.7368
rradius 38.2041
rwrist -2.22939
rhand -17.2718 32.7738
rfingers 7.12502
rthumb 8.97307 2.98458
lclavicle -1.41535e-013 4.45278e-014
lhumerus -30.0849 -11.4279 71.5831
lradius 52.932
lwrist -6.19054
lhand -15.6075 15.97
lfingers 7.12502
lthumb 10.5788 45.6838
rfemur -42.0003 1.76631 13.5669
rtibia 53.8191
rfoot -9.41817 -5.60849
rtoes 11.1389
lfemur -6.72579 7.80201 -33.0424
ltibia 33.2389
lfoot -15.4218 -5.8608
ltoes -5.08171
279
root 9.05984 17.8283 -6.52564 -27.3937 -55.2706 33.155
lowerback 8.35753 -5.44543 -5.6978
upperback 4.10509 -7.73888 2.60053
thorax 0.745817 -4.06753 6.4
lowerneck -1.85189 13.2879 11.5695
upperneck 17.3281 21.1439 -21.7301
head 9.43246 9.3391 -7.04768
rclavicle -8.18993e-014 7.31528e-014
rhumerus -41.3449 -18.8661 -38.1785
rradius 37.9682
rwrist -2.71867
rhand -16.6915 32.3313
rfingers 7.12502
rthumb 9.53299 2.56694
lclavicle -8.18993e-014 7.31528e-014
lhumerus -29.9217 -11.0431 72.3472
lradius 53.4651
lwrist -4.95538
lhand -14.1517 14.6182
lfingers 7.12502
lthumb 11.9828 44.2552
rfemur -41.3317 2.13619 14.5922
rtibia 50.3843
rfoot -9.82381 -4.99097
rtoes 10.4516
lfemur -6.26928 8.64007 -32.0898
ltibia 32.4675
lfoot -14.1959 -6.59238
ltoes -11.0503
280
root 8.97059 17.8962 -6.39198 -25.9301 -55.0893 31.9975
lowerback 7.76756 -5.57315 -4.94795
upperback 4.06311 -7.82833 2.90002
thorax 0.97787 -4.10785 6.2355
lowerneck -2.41798 13.1523 11.3874
upperneck 17.6458 21.0073 -21.7662
head 9.60888 9.20123 -7.02711
rclavicle -1.19271e-014 -6.36111e-014
rhumerus -42.0656 -18.8928 -37.6495
rradius 37.6576
rwrist -3.38773
rhand -15.7062 31.3471
rfingers 7.12502
rthumb 10.4836 1.62852
lclavicle -1.19271e-014 -6.36111e-014
lhumerus -29.5714 -10.7278 73.1208
lradius 54.1134
lwrist -3.73187
lhand -12.8091 13.5264
lfingers 7.12502
lthumb 13.2772 43.0835
rfemur -40.7504 2.42792 15.0644
rtibia 47.004
rfoot -9.89685 -4.38321
rtoes 8.39064
lfemur -5.93822 8.55354 -31.7284
ltibia 31.8054
lfoot -13.288 -6.60013
ltoes -13.2774
281
root 8.86538 17.933 -6.23659 -26.0887 -54.2181 32.4701
lowerback 7.28434 -5.73522 -5.24839
upperback 4.04994 -8.04205 2.78597
thorax 1.28725 -4.22716 6.22953
lowerneck -2.86425 13.0252 11.3867
upperneck 17.9027 20.8668 -21.8064
head 9.76299 9.08562 -7.04457
rclavicle -7.15625e-015 -2.54444e-014
rhumerus -43.0939 -19.2996 -36.9547
rradius 37.4939
rwrist -3.55149
rhand -14.5608 30.7773
rfingers 7.12502
rthumb 11.5884 1.11767
lclavicle -7.15625e-015 -2.54444e-014
lhumerus -29.5821 -10.2998 73.8652
lradius 55.1396
lwrist -2.5616
lhand -11.47 12.9836
lfingers 7.12502
lthumb 14.5677 42.4521
rfemur -39.808 2.1236 14.4016
rtibia 43.8092
rfoot -9.65987 -4.20601
rtoes 3.14308
lfemur -5.27865 8.89806 -32.4565
ltibia 31.369
lfoot -12.2317 -7.27923
ltoes -13.1761
282
root 8.76362 17.9732 -6.08725 -25.724 -53.273 32.4518
lowerback 6.88946 -5.88748 -5.24329
upperback 3.90203 -8.22121 2.6731
thorax 1.35811 -4.30896 6.07496
lowerneck -3.19736 12.8581 11.5604
upperneck 18.2583 20.6422 -21.6823
head 9.91099 8.95875 -7.05545
rclavicle -8.90555e-014 1.27222e-014
rhumerus -44.536 -19.616 -36.2445
rradius 37.5104
rwrist -3.69696
rhand -14.057 30.1465
rfingers 7.12502
rthumb 12.0742 0.514815
lclavicle -8.90555e-014 1.27222e-014
lhumerus -29.6865 -10.4989 74.5257
lradius 56.2408
lwrist -1.0023
lhand -10.1292 12.8087
lfingers 7.12502
lthumb 15.8592 42.1792
rfemur -38.9679 2.16496 13.6999
rtibia 40.8018
rfoot -9.32905 -4.27798
rtoes 4.79868
lfemur -4.79119 9.03274 -32.9023
ltibia 31.0079
lfoot -11.0187 -8.1086
ltoes -11.3124
283
root 8.66538 18.0182 -5.94994 -24.5929 -52.6186 31.6063
lowerback 6.43035 -6.00087 -4.7561
upperback 3.76502 -8.3226 2.81941
thorax 1.4329 -4.34739 5.91516
lowerneck -3.49408 12.6871 11.4767
upperneck 18.4669 20.3885 -21.4773
head 9.95363 8.81956 -6.99845
rclavicle 7.95139e-015 2.54444e-014
rhumerus -45.8869 -19.6275 -35.5689
rradius 37.543
rwrist -4.17008
rhand -13.904 29.2388
rfingers 7.12502
rthumb 12.2217 -0.384123
lclavicle 7.95139e-015 2.54444e-014
lhumerus -29.4346 -10.7681 75.2751
lradius 56.9775
lwrist 0.568409
lhand -8.94502 12.9342
lfingers 7.12502
lthumb 16.9994 42.2104
rfemur -38.2805 2.85761 13.307
rtibia 38.0004
rfoot -9.13618 -4.52692
rtoes 10.6826
lfemur -4.56324 9.17735 -32.6762
ltibia 30.8211
lfoot -9.56007 -8.96274
ltoes -6.84223
284
root 8.55737 18.0475 -5.80681 -24.1846 -52.0012 31.3444
lowerback 6.01605 -6.02078 -4.60573
upperback 3.76745 -8.32719 2.92952
thorax 1.65968 -4.35415 5.89521
lowerneck -3.92994 12.5416 11.0587
upperneck 18.6389 20.1586 -21.1261
head 9.95896 8.6723 -6.81929
rclavicle -2.14687e-014 9.54166e-015
rhumerus -47.1758 -19.7224 -34.6896
rradius 37.3925
rwrist -4.42382
rhand -13.691 28.8731
rfingers 7.12502
rthumb 12.427 -0.737527
lclavicle -2.14687e-014 9.54166e-015
lhumerus -29.0765 -10.4793 76.3369
lradius 57.5608
lwrist 1.52941
lhand -7.61709 12.4276
lfingers 7.12502
lthumb 18.2772 41.5889
rfemur -37.3706 3.67777 12.5907
rtibia 35.3981
rfoot -9.06689 -5.21598
rtoes 10.5444
lfemur -4.17765 9.72191 -32.7153
ltibia 30.919
lfoot -8.28486 -9.80018
ltoes -4.20453
